<svg xmlns="http://www.w3.org/2000/svg" xmlns:xlink="http://www.w3.org/1999/xlink" width="552.104" height="705.967" viewBox="0 0 552.104 705.967">
  <defs>
    <linearGradient id="linear-gradient" x1="0.5" y1="1" x2="0.5" gradientUnits="objectBoundingBox">
      <stop offset="0" stop-color="gray" stop-opacity="0.251"/>
      <stop offset="0.54" stop-color="gray" stop-opacity="0.122"/>
      <stop offset="1" stop-color="gray" stop-opacity="0.102"/>
    </linearGradient>
    <linearGradient id="linear-gradient-2" x1="0.5" x2="0.5" y2="1" gradientUnits="objectBoundingBox">
      <stop offset="0" stop-color="#ff8453"/>
      <stop offset="1" stop-color="#ee7a37"/>
    </linearGradient>
  </defs>
  <g id="Group_34866" data-name="Group 34866" transform="translate(-374.896 -1556.358)">
    <rect id="Rectangle_46" data-name="Rectangle 46" width="35.764" height="24.135" transform="translate(785.592 2092.509)" opacity="0.4"/>
    <rect id="Rectangle_47" data-name="Rectangle 47" width="35.764" height="24.135" transform="translate(882.143 2092.509)" opacity="0.4"/>
    <rect id="Rectangle_66" data-name="Rectangle 66" width="178.796" height="21.571" transform="translate(471.817 1933.041)" opacity="0.4"/>
    <rect id="Rectangle_67" data-name="Rectangle 67" width="178.796" height="21.571" transform="translate(471.817 2002.375)" opacity="0.4"/>
    <rect id="Rectangle_68" data-name="Rectangle 68" width="178.796" height="21.571" transform="translate(471.817 2071.721)" opacity="0.4"/>
    <circle id="Ellipse_13" data-name="Ellipse 13" cx="2.013" cy="2.013" r="2.013" transform="translate(907.553 1597.733)" fill="#e7effd"/>
    <circle id="Ellipse_15" data-name="Ellipse 15" cx="2.013" cy="2.013" r="2.013" transform="translate(793.021 1711.457)" fill="#e7effd"/>
    <path id="Path_18" data-name="Path 18" d="M856.587,721.663s-42.9,10.453-59.886,30.012c-5.69,6.536-14.131,11.247-22.847,14.609V736.776c9.816-16.6,19.708-35.062,19.708-35.062.45-.907,4.027-13.64,4.027-13.64,8.053-6.373-.45-28.639-.45-28.639s4.927-14.093,2.238-16.826-.45-10,1.788-13.186,1.788-7.28,1.788-10-3.576-6.826-9.391-9.093.45-5.907,4.027-6.826,4.477-9.546.45-14.093.45-7.267,2.676-12.267-7.19-4.093-7.19-4.093V527.083h0s-2.689-15-5.365-41.372-12.968-29.093-12.968-29.093a117.281,117.281,0,0,1-16.094-6.373,109.731,109.731,0,0,0-16.982-6.36s-12.067,0-21.909-3.048-14.943-3.262-14.943-3.262l-1.613-.806A58.806,58.806,0,0,1,676.528,407.8c-.275-.63-.525-1.259-.775-1.864a63.54,63.54,0,0,0,7.141-9.546v5.264h0v.113c7.128-12.682,27.811-15.579,29.774-30.062a15.184,15.184,0,0,0,.138-1.99V368.17c-.263-4.043-1.638-8.073-1.9-12.153a23.486,23.486,0,0,1,0-3.514v.076c.925-11.247,9.341-21.032,13.193-31.951a38.531,38.531,0,0,0,2.013-9.093v-.088c.1-.932.163-1.876.188-2.821v-2.657a42.673,42.673,0,0,0-13.943-30.73c-7.128-6.234-16.544-10.151-21.484-18.3-2.3-3.778-3.426-8.262-5.94-11.914-4.727-6.9-13.405-9.71-21.621-10.705s-16.657-.668-24.51-3.262c-5.577-1.839-10.629-5.1-16.256-6.738a30.986,30.986,0,0,0-33.4,12.128c-2.964,4.358-4.9,9.572-8.9,12.972-8.191,6.977-22.084,3.955-29.262,11.99-3.939,4.421-4.389,10.441-3.914,16.586v.227a14.044,14.044,0,0,0,.138,1.423v.667a2.093,2.093,0,0,0,.088.718c.25,2.2.563,4.4.838,6.511a8.512,8.512,0,0,0,.113.97l.225,1.977a13.894,13.894,0,0,0,.125,1.436c.05.479.088,1.259.125,1.788a12.546,12.546,0,0,0,.088,1.411,97.76,97.76,0,0,1-10.254,48.487c-6.765,13.362-16.819,25.68-18.57,40.6a44.058,44.058,0,0,0-.2,7.368v.869c0,.29.075.882.113,1.322s.1,1.02.163,1.524a6.881,6.881,0,0,0,.113.869c.087.668.188,1.335.3,2.015l.075.428c1.776,10.176,5.8,20.151,7.941,30.427a82.838,82.838,0,0,1,1.6,11.5.164.164,0,0,0,0,.076c.075,1.259.138,2.456.175,3.69v5.038a78.954,78.954,0,0,1-10.417,3.224c-6.253.907-24.6,17.279-23.259,21.41s-8.2,32.745-8.466,33.614h0L473.11,612.119s-7.966,7.733-5.477,12.733-.488,13.64-.488,13.64-13.455,5.907-10.467,9.546,1.626,10.453-.425,15-5.415,12.733,0,14.093.925,19.105.925,19.105,18.87-2.191,17.507,9.093c-.45,3.589,13.193,13.463,18.883,17.418v54.331c-7.641-2.154-16.619-4.949-22.346-7.645-11.617-5.453-76.881-15.906-91.186,15.466s19.67,73.2,28.161,77.744c0,0,8.053,6.36,9.841,9.546s12.067,4.093,12.067,4.093,10.729,5.038,13.405,7.72c1.976,2.015,18.32,7.242,37.69,11.335h0s-15.644,36.271,9.879,33.286,37.953-15.642,55.947-15.642c7.19,0,20.546-1.02,33.989-2.229a89.792,89.792,0,0,1,10,2.38,127.775,127.775,0,0,0,23.234,5.038s20.12,10.906,30.85,8.174a6.8,6.8,0,0,0,2.426-1.259h.25c1.951-.491,4.164-2.519,6.465-5.579,13.418,1.385,28.761,3.35,34.464,5.592,11.117,4.32,90.636-1.662,90.636-1.662s51.37,1.02,66.089,5.5,9.491-45.78-17.67-51.435a110.681,110.681,0,0,0-22.021-2.191,49.677,49.677,0,0,0,5.139-6.3c9.779-.894,16.256-1.448,16.256-1.448s25.923-12.733,40.679-20.465a92.926,92.926,0,0,0,25.01-20s12.955-8.186,18.32-11.335,8.041-13.639,8.041-13.639C959.841,709.371,856.587,721.663,856.587,721.663Zm-116.4-116.345v-4.584c1.451,1.033,1.238,2.657,0,4.572Zm.425,32.153c1.088,1.436,2.138,2.745,2.889,3.778,2.889,3.778-2.338,5.541-1.963,11.8.088,1.4.213,3.35.338,5.516h0c-.55-9.03-1-16.461-1.263-21.108Z" transform="translate(-1.667 1333.105)" fill="url(#linear-gradient)"/>
    <path id="Path_19" data-name="Path 19" d="M507.934,669.52s-25.01-5.815-36.652-11.179S394.4,642.7,380.1,673.546s19.67,71.953,28.161,76.43,91.186-56.785,91.186-56.785L564.669,720.7l12.5-42.692Z" transform="translate(-1.652 1445.578)" fill="#65617d"/>
    <rect id="Rectangle_69" data-name="Rectangle 69" width="283.95" height="98.777" rx="36.83" transform="translate(533.88 2123.589)" fill="#65617d"/>
    <path id="Path_20" data-name="Path 20" d="M787.65,722.242a49.282,49.282,0,0,1-8.228,27.311,50.018,50.018,0,0,1-6.253,7.628,49.232,49.232,0,0,1-34.926,14.468H553.095a49.395,49.395,0,1,1,0-98.789H738.256a49.4,49.4,0,0,1,49.395,49.382Z" transform="translate(30.18 1450.729)" opacity="0.1"/>
    <path id="Path_21" data-name="Path 21" d="M644.873,714.66s-28.474,7.315-51.708,6.99S461.25,766.48,461.25,766.48s-15.644,35.664,9.879,32.713,37.953-15.331,55.947-15.331,74.6-6.252,74.6-6.252l54.472-40.241Z" transform="translate(18.357 1461.2)" fill="#fbbebe"/>
    <path id="Path_22" data-name="Path 22" d="M648.251,471.087l-51.07,10.066-3.314.663s-40.378-10.729-41.716-11.63S514.16,419.9,514.16,419.9s18.532.2,33.088-8.191c.525-.3,1.038-.625,1.551-.938a32.263,32.263,0,0,0,13.755-16.869c.263-.738.488-1.5.7-2.3,1.551-5.977,1.651-13.218-.425-21.984-5-20.846,6.5-26.586,21.746-26.085,22.021.725,52,14.468,52,14.468a61.114,61.114,0,0,0,4.714,20.383c.238.6.5,1.25.775,1.826a58.2,58.2,0,0,0,27.123,28.449l1.613.8c1.626.775,3.339,1.513,5.115,2.176C714.852,426.394,648.251,471.087,648.251,471.087Z" transform="translate(32.8 1364.564)" fill="#fbbebe"/>
    <path id="Path_23" data-name="Path 23" d="M632.584,380.212A64.413,64.413,0,0,1,553.078,393.9c2.2-6.4,2.614-14.368.275-24.285C541.286,318.662,627.132,358,627.132,358A61.936,61.936,0,0,0,632.584,380.212Z" transform="translate(42.326 1364.399)" opacity="0.1"/>
    <path id="Path_24" data-name="Path 24" d="M655.159,349.561a63.925,63.925,0,0,1-9.754,34.051,63.011,63.011,0,0,1-7.14,9.391,64,64,0,0,1-43.592,20.758c-1.25.087-2.589.125-3.889.125a64.363,64.363,0,1,1,64.363-64.363Z" transform="translate(35.871 1348.612)" fill="#fbbebe"/>
    <path id="Path_25" data-name="Path 25" d="M648.251,458.012l-51.07,10.066-3.314.663s-40.378-10.729-41.716-11.63-37.99-50.282-37.99-50.282,18.532.2,33.088-8.191c.525-.3,1.038-.625,1.551-.938,4.627,5,19.77,19.145,43.567,19.045a62.933,62.933,0,0,0,9.129-.663c7.178-1.1,14.418-1.813,21.646-2.5,13.843-1.451,35.014-5.652,46.131-17.882l1.613.8c1.626.775,3.339,1.513,5.115,2.176C714.852,413.319,648.251,458.012,648.251,458.012Z" transform="translate(32.8 1378.019)" opacity="0.1"/>
    <path id="Path_26" data-name="Path 26" d="M718,588.386c.438,9.841,7.6,120.685,7.6,120.685H502.552l1.513-69.79,1.251-55.822.4-18.32,1.788-63.463-6.465-5.7L465.9,465.012h0c.263-.825,9.791-29.074,8.466-33.051s16.994-20.108,23.259-21.008a81.431,81.431,0,0,0,10.479-3.189c10.542-3.752,24.61-9.154,26.16-8.3,2.188,1.175,24.122-.863,25.01-.95h0s16.181,20.921,45.093,20.8a61.281,61.281,0,0,0,9.091-.725c7.178-1.1,14.418-1.813,21.646-2.564,14.543-1.513,37.152-6.077,47.744-19.758,0,0,5.115.213,14.943,3.2s21.909,3,21.909,3a111.186,111.186,0,0,1,16.982,6.253,118.788,118.788,0,0,0,16.094,6.252s10.279,2.676,12.968,28.6,5.4,40.679,5.4,40.679L718,530.276S717.562,578.507,718,588.386Z" transform="translate(20.711 1379.229)" fill="#ff8453"/>
    <path id="Path_27" data-name="Path 27" d="M422.411,543.52l7.816,12.517L459.5,566.354l20.12-36.69-18.545-12.517L431.352,505.53l-16.982,9.829Z" transform="translate(64.213 1502.137)" fill="#fbbebe"/>
    <path id="Path_28" data-name="Path 28" d="M666.509,671.551s41.567-3.126,58.561-22.346,59.886-29.5,59.886-29.5,103.254-12.067,62.525,79.119c0,0-2.676,10.279-8.041,13.405s-18.32,11.179-18.32,11.179l-158.6-13.855Z" transform="translate(69.964 1437.281)" fill="#65617d"/>
    <path id="Path_29" data-name="Path 29" d="M764.064,719.727a49.283,49.283,0,0,1-8.228,27.311c-26.686,2.364-85.784,7.916-98.151,11.367-15.194,4.214-45.943-3.126-49.307-3.952l-.313-.075s-5.927-17.982-8.753-29.487c-1.251-5.227-1.913-9.116-1.088-9.4,2.689-.888,27.273-7.6,26.823-3.752S698.826,682.9,698.826,682.9l2.276,28.611C708.642,720.14,764.064,707.31,764.064,719.727Z" transform="translate(53.766 1453.244)" opacity="0.1"/>
    <path id="Path_30" data-name="Path 30" d="M839.953,695.552l-3.126,11.63a92.653,92.653,0,0,1-25.01,19.658c-14.756,7.6-40.679,20.12-40.679,20.12s-95.2,8.041-111.294,12.505-49.62-4.027-49.62-4.027-12.505-37.99-9.829-38.89,27.261-7.591,26.823-3.752S701,683.96,701,683.96Z" transform="translate(54.308 1453.509)" fill="#65617d"/>
    <path id="Path_31" data-name="Path 31" d="M579.92,782.015s46.794,3.264,57.923,7.5,90.636-1.626,90.636-1.626,51.37,1,66.089,5.4,9.491-45.018-17.67-50.558-65.438,2.614-65.438,2.614-43.192-5.565-48.432-6.252-39.741.313-39.741.313Z" transform="translate(49.273 1467.261)" fill="#fbbebe"/>
    <path id="Path_32" data-name="Path 32" d="M432.87,674.72s61.849,5.565,78.856,15.706Z" transform="translate(12.437 1451.195)" opacity="0.1"/>
    <path id="Path_33" data-name="Path 33" d="M754.874,642.28s-48.432,11.78-67.414,29.112Z" transform="translate(76.211 1441.968)" opacity="0.1"/>
    <path id="Path_34" data-name="Path 34" d="M435.75,663.47c.988.325,28.474,3.927,27.811,6.54S435.75,663.47,435.75,663.47Z" transform="translate(13.158 1447.343)" opacity="0.1"/>
    <path id="Path_35" data-name="Path 35" d="M401.21,724.158l3.576,13.418s8.041,6.252,9.829,9.379,12.067,4.027,12.067,4.027,10.729,4.914,13.418,7.591,31.725,11.179,59,14.756,77.768,10.279,88.5,13.856a128.8,128.8,0,0,0,23.247,4.914s20.108,10.729,30.837,8.053,29.049-51.408,29.049-51.408-70.616-16.531-72.854-21.9S527.7,696.46,527.7,696.46l-40.228.95Z" transform="translate(4.507 1456.641)" opacity="0.1"/>
    <path id="Path_36" data-name="Path 36" d="M399.06,729.8l3.576,13.418s8.053,6.252,9.841,9.379,12.067,4.026,12.067,4.026,10.729,4.914,13.405,7.6,31.738,11.167,59,14.743,77.781,10.279,88.51,13.855a129.2,129.2,0,0,0,23.234,4.9s20.121,10.717,30.85,8.041,29.049-51.408,29.049-51.408-70.628-16.531-72.854-21.9-101.915-46.031-101.915-46.031L462.56,679.28Z" transform="translate(3.968 1452.337)" fill="#65617d"/>
    <path id="Path_37" data-name="Path 37" d="M480.685,447.67l-7.816,4.477-15.006,102.8s-7.966,7.6-5.477,12.5-.488,13.405-.488,13.405-13.455,5.815-10.467,9.391,1.626,10.279-.425,14.743-5.415,12.5,0,13.856.925,18.757.925,18.757,18.87-2.151,17.507,8.929c-.563,4.477,21.333,18.757,21.333,18.757s-24.885-45.143,30.862-38.89l4.789-25.448s4.789-14.331,0-18.757,1.075-25.7,1.075-25.7l1.05-92.3Z" transform="translate(13.742 1392.223)" fill="url(#linear-gradient-2)"/>
    <path id="Path_38" data-name="Path 38" d="M462.44,553.84c.988,1.638,31.087,5,33.051,10.342S462.44,553.84,462.44,553.84Z" transform="translate(19.845 1418.913)" opacity="0.1"/>
    <path id="Path_39" data-name="Path 39" d="M454.85,576.4s4.089-12.768,13.755-10.479S454.85,576.4,454.85,576.4Z" transform="translate(17.943 1421.975)" opacity="0.1"/>
    <path id="Path_40" data-name="Path 40" d="M450.67,592.321s7.19-17.019,17.007-15.706S450.67,592.321,450.67,592.321Z" transform="translate(16.896 1424.826)" opacity="0.1"/>
    <path id="Path_41" data-name="Path 41" d="M729.995,593.071l-3.139,18.757s-32.175,59.011-37.99,59.9S651.351,632.4,651.351,632.4l-8.491-39.341,33.426-6.34,14.843-14.668S728.644,575.639,729.995,593.071Z" transform="translate(65.039 1424.104)" fill="#fbbebe"/>
    <path id="Path_42" data-name="Path 42" d="M709.865,461.391l12.067,8.491v45.143s9.391-.9,7.153,4.027-6.7,7.591-2.676,12.067,3.126,12.955-.45,13.855-9.829,4.464-4.027,6.7,9.391,6.252,9.391,8.941.45,6.7-1.788,9.829-4.464,10.279-1.788,12.968-2.238,16.532-2.238,16.532,8.5,21.909.45,28.161c0,0-3.576,12.505-4.027,13.405,0,0,5.64-43.5-50.6-25.11,0,0-1.038-16.582-1.426-22.722s4.852-7.941,1.963-11.6-10.117-12.08-6.7-14.306,2.238-6.253.888-9.391-6.065-3.126-1.788-6.928,6.815-7.366,4.3-9.154-6.878-7.615-3.4-10.292,3.576-41.566,3.576-41.566S683.054,433.23,709.865,461.391Z" transform="translate(69.963 1393.612)" fill="url(#linear-gradient-2)"/>
    <path id="Path_43" data-name="Path 43" d="M695.84,521.745s17.182-4.664,17.745,0S695.84,521.745,695.84,521.745Z" transform="translate(78.31 1410.016)" opacity="0.1"/>
    <path id="Path_44" data-name="Path 44" d="M680.4,532.212s23.559-5.89,26.5-1.313S680.4,532.212,680.4,532.212Z" transform="translate(74.443 1412.477)" opacity="0.1"/>
    <path id="Path_45" data-name="Path 45" d="M676.21,541.868s35.339-4.914,37.627,2.288S676.21,541.868,676.21,541.868Z" transform="translate(73.393 1415.361)" opacity="0.1"/>
    <path id="Path_46" data-name="Path 46" d="M680.4,553.84c1.313.325,34.026,2.614,34.676,8.828S680.4,553.84,680.4,553.84Z" transform="translate(74.443 1418.908)" opacity="0.1"/>
    <rect id="Rectangle_70" data-name="Rectangle 70" width="280.211" height="159.151" rx="10.47" transform="translate(491.988 1993.901)" fill="#77eaea"/>
    <circle id="Ellipse_16" data-name="Ellipse 16" cx="10.329" cy="10.329" r="10.329" transform="translate(621.764 2062.848)" fill="#e7effd"/>
    <path id="Path_47" data-name="Path 47" d="M507.72,491.94s26.861,20.533,47.631,4.889C555.351,496.829,520.237,500.018,507.72,491.94Z" transform="translate(31.187 1402.844)" opacity="0.1"/>
    <path id="Path_48" data-name="Path 48" d="M616.48,496.36s26.848,20.521,47.619,4.877C664.1,501.237,629,504.438,616.48,496.36Z" transform="translate(58.431 1403.991)" opacity="0.1"/>
    <path id="Path_49" data-name="Path 49" d="M666.616,349.538a63.926,63.926,0,0,1-9.754,34.051c-.538-17.92-4.752-35.852-14.506-50.82-8.929-13.755-36.077-37.752-54.734-31.062a13.218,13.218,0,0,0-8.153,8.753c-1.851,7.028,3.564,10,7.04,15.544a47.656,47.656,0,0,1,6.5,32.113,44.664,44.664,0,0,1-.938,4.452c-2.939,11.029-9.666,23.647-2.726,32.688,4.839,6.253,15.244,8.478,16.657,16.256a9.5,9.5,0,0,1,.125,2.226c-.325,5.265-4.815,9.9-6.778,15.068-2.3,6.09-1,12.142,1.388,18.257,3.1,7.978,8.053,16.044,9.254,24.472s-1.388,16.256-4.439,24.172c-2.889,7.5-6.252,14.943-7.378,22.759-2.163,14.856,3.289,32.038-6.065,43.767A6.552,6.552,0,0,1,588.022,565c-5.99.625-5-10.142-9.791-13.755.513,6.253,1,12.78-1.25,18.632s-8.178,10.829-14.381,9.841l-2.138-14.043a40.555,40.555,0,0,1-14.881,9.316,108.469,108.469,0,0,1,15.531-42.017c-15.744,7.578-24.922,23.985-33.113,39.416-5.1,9.641-10.392,20.171-8.6,30.937.725,4.389,2.614,8.566,3.026,12.98s-1.188,9.579-5.3,11.254c-3.589,1.463-7.778-.288-10.367-3.214l-.45-.538c-.25-.325-.488-.663-.713-1a16.8,16.8,0,0,1-1.188-2.126,41.132,41.132,0,0,1-2.5-8.216l-.275-1.25c-4.164-18.27-7.916-37.115-4.864-55.6,1.125-6.8,3.176-13.555,2.926-20.458a37.513,37.513,0,0,0-2.351-11.38c-3.651-10.229-10.679-19.62-14.681-29.924a.887.887,0,0,1-.1-.225c-2.1-5.452-3.139-12.267.75-16.644,2-2.263,5-3.4,7.5-5,7.778-5.065,11.254-14.681,12.693-23.859a81.13,81.13,0,0,0,.975-12.5c10.542-3.751,24.61-9.154,26.16-8.3,2.188,1.175,24.122-.863,25.01-.95,6.678-3.852,12.5-9.516,15.356-17.807.263-.738.488-1.5.7-2.3a64.363,64.363,0,1,1,94.925-56.66Z" transform="translate(24.414 1348.634)" opacity="0.1"/>
    <path id="Path_50" data-name="Path 50" d="M592.074,374.291c-2.951,11.029-9.666,23.647-2.714,32.7,4.839,6.253,15.244,8.466,16.632,16.256,1.113,6.252-4.4,11.4-6.628,17.282-5.3,14.043,8.528,27.849,10.629,42.717,2.288,16.131-9.466,30.825-11.8,46.944-2.163,14.856,3.289,32.025-6.065,43.767a6.477,6.477,0,0,1-4.089,2.764c-5.99.638-5-10.129-9.791-13.755.513,6.252,1,12.78-1.251,18.632s-8.178,10.817-14.381,9.841l-2.138-14.056a40.5,40.5,0,0,1-14.881,9.316,108.546,108.546,0,0,1,15.519-42c-15.744,7.578-24.91,23.984-33.1,39.4-5.115,9.641-10.392,20.183-8.616,30.95.725,4.389,2.613,8.553,3.026,12.98s-1.188,9.566-5.3,11.254c-3.751,1.563-8.291-.513-10.817-3.751s-3.5-7.365-4.414-11.355c-4.277-18.657-8.266-37.915-5.152-56.8,1.125-6.815,3.176-13.568,2.926-20.458-.538-15.093-11.68-27.511-17.107-41.554-2.113-5.465-3.139-12.267.75-16.644,2-2.263,5-3.4,7.5-5,7.766-5.077,11.254-14.681,12.68-23.859A82.682,82.682,0,0,0,502.651,430c-3.139-14.693-10.342-29.049-8.553-43.967,1.751-14.681,11.8-26.786,18.57-39.928a94.464,94.464,0,0,0,9.579-55.209c-1.163-8.816-3.2-19.02,2.776-25.61,7.178-7.9,21.071-4.927,29.262-11.78,4-3.339,5.94-8.478,8.9-12.755a31.262,31.262,0,0,1,33.4-11.93c5.627,1.613,10.679,4.814,16.256,6.628,7.853,2.5,16.256,2.226,24.51,3.214s16.894,3.751,21.621,10.517c2.5,3.6,3.639,7.991,5.94,11.717,4.94,8,14.356,11.855,21.484,17.995a41.691,41.691,0,0,1,11.73,44.53c-4.252,11.842-14.093,22.321-13.255,34.876.338,5.165,2.5,10.229,1.826,15.344-1.976,14.243-22.646,17.082-29.787,29.562.575-20.458-3.351-41.529-14.518-58.673-8.929-13.755-36.077-37.765-54.734-31.075a13.267,13.267,0,0,0-8.153,8.753c-1.851,7.015,3.564,10,7.04,15.544A47.269,47.269,0,0,1,592.074,374.291Z" transform="translate(24.413 1334.236)" fill="#3f3d56"/>
    <g id="Group_16" data-name="Group 16" transform="translate(505.13 1610.363)" opacity="0.2">
      <path id="Path_51" data-name="Path 51" d="M501.773,412.925a81.966,81.966,0,0,0-1.788-19.133c-2.664-12.5-8.241-24.747-8.753-37.3-.725,13.981,5.815,27.511,8.753,41.266A82.093,82.093,0,0,1,501.773,412.925Z" transform="translate(-478.088 -243.883)"/>
      <path id="Path_52" data-name="Path 52" d="M549.987,483.95c1.088-1.988,2.213-3.964,3.426-5.89-15.731,7.578-24.91,23.985-33.1,39.416-4.739,8.916-9.6,18.62-8.879,28.549.6-8.516,4.789-16.819,8.879-24.535C527.891,507.222,536.319,492.141,549.987,483.95Z" transform="translate(-473.031 -213.43)"/>
      <path id="Path_53" data-name="Path 53" d="M519.354,557.024c-.475,3.376-2.151,6.578-5.227,7.841-3.752,1.551-8.291-.513-10.8-3.751s-3.514-7.353-4.427-11.355c-3.051-13.33-5.952-26.986-6.252-40.579-.3,14.918,2.876,29.949,6.252,44.605.913,3.989,1.9,8.128,4.427,11.355s7.015,5.3,10.8,3.751c4.114-1.688,5.727-6.828,5.315-11.255A1.518,1.518,0,0,1,519.354,557.024Z" transform="translate(-477.725 -205.634)"/>
      <path id="Path_54" data-name="Path 54" d="M572.363,334.2a45.384,45.384,0,0,1-1.451,9.5c-2.176,8.166-6.428,17.219-5.665,25.01.6-6.8,3.852-14.206,5.665-21.021A45.192,45.192,0,0,0,572.363,334.2Z" transform="translate(-459.555 -249.466)"/>
      <path id="Path_55" data-name="Path 55" d="M514.927,291.5a93.863,93.863,0,0,0-.775-14.268c-.463-3.476-1.05-7.178-1.25-10.792-.288,4.814.588,10,1.251,14.818a93.618,93.618,0,0,1,.775,10.242Z" transform="translate(-472.659 -266.44)"/>
      <path id="Path_56" data-name="Path 56" d="M582.471,384.253a.431.431,0,0,0-.088-.313c-.95,4.652-4.777,8.9-6.54,13.58a19.044,19.044,0,0,0-1.1,8.753,17.981,17.981,0,0,1,1.1-4.727C578.056,395.657,583.571,390.455,582.471,384.253Z" transform="translate(-457.183 -237.007)"/>
      <path id="Path_57" data-name="Path 57" d="M499.655,489.552c-.55-15.094-11.68-27.511-17.119-41.554a28.483,28.483,0,0,1-1.751-6.878,23.233,23.233,0,0,0,1.751,10.9c5.352,13.856,16.181,26.048,17.057,40.8C499.655,491.74,499.693,490.64,499.655,489.552Z" transform="translate(-480.709 -222.683)"/>
      <path id="Path_58" data-name="Path 58" d="M622.674,324.456c-8.941-13.755-36.077-37.765-54.734-31.075a13.281,13.281,0,0,0-8.166,8.753,9.467,9.467,0,0,0-.137,4.7,2.6,2.6,0,0,1,.138-.675,13.255,13.255,0,0,1,8.166-8.753c18.657-6.69,45.793,17.357,54.734,31.075,10.1,15.531,14.268,34.276,14.543,52.871C637.48,361.408,633.491,341.062,622.674,324.456Z" transform="translate(-460.997 -259.98)"/>
      <path id="Path_59" data-name="Path 59" d="M651.354,341.29c-1.963,14.206-22.509,17.069-29.724,29.474v4.1c7.128-12.505,27.811-15.319,29.774-29.562a16.962,16.962,0,0,0,0-4.214A1.067,1.067,0,0,1,651.354,341.29Z" transform="translate(-445.409 -247.74)"/>
      <path id="Path_60" data-name="Path 60" d="M657.205,303.339c-4.252,11.855-14.093,22.321-13.255,34.889v.55c.925-11.067,9.341-20.671,13.193-31.412a39.365,39.365,0,0,0,2.188-15.306,38.228,38.228,0,0,1-2.126,11.279Z" transform="translate(-439.831 -260.022)"/>
      <path id="Path_61" data-name="Path 61" d="M572.581,505.483a6.5,6.5,0,0,1-4.089,2.776c-5.99.638-5-10.129-9.791-13.755.125,1.426.238,2.864.313,4.3,4.452,3.852,3.627,14.093,9.479,13.468a6.44,6.44,0,0,0,4.089-2.764c5.34-6.7,5.852-15.169,5.715-23.96C578.158,492.878,577.095,499.868,572.581,505.483Z" transform="translate(-461.173 -211.554)"/>
      <path id="Path_62" data-name="Path 62" d="M563.982,509.351c-2.276,5.865-8.178,10.829-14.393,9.841q-1.063-7.015-2.126-14.056a40.79,40.79,0,0,1-14.143,9.041c-.275,1.426-.538,2.864-.75,4.3a40.541,40.541,0,0,0,14.893-9.316q1.063,7.04,2.126,14.056c6.252.975,12.117-3.977,14.393-9.841a32.041,32.041,0,0,0,1.638-12.718A27.052,27.052,0,0,1,563.982,509.351Z" transform="translate(-467.718 -207.769)"/>
      <path id="Path_63" data-name="Path 63" d="M574.765,474.634a71.453,71.453,0,0,0-.538,11.392,57.034,57.034,0,0,1,.538-7.365c2.238-15.369,13.005-29.437,12.03-44.68C585.932,447.76,576.8,460.628,574.765,474.634Z" transform="translate(-457.293 -224.472)"/>
    </g>
  </g>
</svg>
